<svg width="18" height="18" viewBox="0 0 18 18" fill="none" xmlns="http://www.w3.org/2000/svg">
<path d="M0.729655 0.725414C1.1098 0.324779 1.75455 0.334976 2.16974 0.748189L17.2051 15.712C17.6203 16.1252 17.6487 16.7849 17.2685 17.1856C16.8884 17.5862 16.2437 17.576 15.8285 17.1628L0.79311 2.19902C0.37792 1.7858 0.349511 1.12605 0.729655 0.725414Z" fill="#D10032"/>
<path d="M17.2684 0.725414C16.8882 0.324779 16.2435 0.334976 15.8283 0.748189L0.792953 15.712C0.377764 16.1252 0.349353 16.7849 0.729498 17.1856C1.10964 17.5862 1.75439 17.576 2.16958 17.1628L17.2049 2.19902C17.6201 1.7858 17.6485 1.12605 17.2684 0.725414Z" fill="#D10032"/>
</svg>
