<svg width="24" height="22" viewBox="0 0 24 22" fill="none" xmlns="http://www.w3.org/2000/svg">
<path d="M20 12.4464L21.1594 11.4157C21.6068 11.0179 21.6068 10.3188 21.1594 9.92102L20 8.89031" stroke="#012D68" stroke-width="1.5" stroke-linecap="round" stroke-linejoin="round"/>
<path d="M21 10.6684H13M6 17.7806C3.79086 17.7806 2 16.1885 2 14.2245V7.11225C2 5.14826 3.79086 3.55612 6 3.55612M6 17.7806C8.20914 17.7806 10 16.1885 10 14.2245V7.11225C10 5.14826 8.20914 3.55612 6 3.55612M6 17.7806H14C16.2091 17.7806 18 16.1885 18 14.2245M6 3.55612H14C16.2091 3.55612 18 5.14826 18 7.11225" stroke="#012D68" stroke-width="1.5" stroke-linecap="round"/>
</svg>
